# xmcd
#
# Track frame offsets:
#  150
#  11316
#  28194
#  43178
#  53071
#  68984
#  85156
#  105861
#  120212
#  132962
#  146277
#  155969
#  168128
#
# Disc length: 2449 seconds
#
# Revision: 0
# Processed by: cddbd v1.5.2PL0 Copyright (c) Steve Scherf et al.
# Submitted via: AltoMP3_Maker 3.0
#
DISCID=9e098f0d
DTITLE=Neville Anderson - Lonely Places
DYEAR=1900
DGENRE=
TTITLE0=Nothin Takes You Off My Mind
TTITLE1=Bowling Club Blues
TTITLE2=Dance With The Devil
TTITLE3=If You Could Be Me
TTITLE4=Fake it Til I Make it
TTITLE5=The Graves of Camooweal
TTITLE6=Pancho and Lefty
TTITLE7=Bandy The Rodeo Clown
TTITLE8=Right at Home
TTITLE9=Square Pegs
TTITLE10=Miss Otis Regrets
TTITLE11=Sorrow
TTITLE12=I Think I'll Just Stay Here and Drink
EXTD=
EXTT0=
EXTT1=
EXTT2=
EXTT3=
EXTT4=
EXTT5=
EXTT6=
EXTT7=
EXTT8=
EXTT9=
EXTT10=
EXTT11=
EXTT12=
PLAYORDER=
